<svg width="25" height="24" viewBox="0 0 25 24" fill="none" xmlns="http://www.w3.org/2000/svg">
<path d="M12.5002 1.19984C6.53631 1.19984 1.7002 6.03511 1.7002 11.9999C1.7002 16.7717 4.79473 20.82 9.08595 22.2481C9.62568 22.348 9.82388 22.0138 9.82388 21.7285C9.82388 21.471 9.8138 20.6202 9.80923 19.7178C6.80456 20.3711 6.17056 18.4435 6.17056 18.4435C5.67928 17.1951 4.97142 16.8633 4.97142 16.8633C3.99158 16.1929 5.04528 16.2067 5.04528 16.2067C6.12982 16.2829 6.70088 17.3196 6.70088 17.3196C7.66413 18.9708 9.2274 18.4934 9.8437 18.2175C9.9406 17.5194 10.2205 17.043 10.5294 16.7733C8.13058 16.5001 5.60881 15.5741 5.60881 11.4358C5.60881 10.2568 6.03072 9.29329 6.72164 8.53697C6.60949 8.26491 6.23985 7.16648 6.82625 5.67885C6.82625 5.67885 7.73316 5.38857 9.79703 6.78591C10.6585 6.54654 11.5824 6.4266 12.5002 6.42254C13.4181 6.4266 14.3427 6.54654 15.2058 6.78591C17.2672 5.38857 18.1729 5.67885 18.1729 5.67885C18.7607 7.16648 18.3909 8.26491 18.2788 8.53697C18.9712 9.29329 19.3902 10.2567 19.3902 11.4358C19.3902 15.5839 16.8637 16.4974 14.4588 16.7647C14.8462 17.0998 15.1913 17.7571 15.1913 18.7647C15.1913 20.2097 15.1788 21.3728 15.1788 21.7285C15.1788 22.0159 15.3732 22.3527 15.9207 22.2466C20.2096 20.8169 23.3002 16.7701 23.3002 11.9999C23.3002 6.03511 18.4648 1.19984 12.5002 1.19984Z" fill="#353E5C"/>
<path d="M5.74532 16.5848C5.7216 16.6384 5.63707 16.6545 5.56024 16.6177C5.48189 16.5825 5.43785 16.5093 5.46326 16.4554C5.48655 16.4002 5.57109 16.3848 5.64927 16.4219C5.72779 16.457 5.77251 16.5309 5.74532 16.5848V16.5848ZM6.27658 17.0588C6.22508 17.1065 6.12437 17.0844 6.05601 17.0089C5.98537 16.9336 5.97215 16.833 6.02442 16.7844C6.07752 16.7367 6.17519 16.759 6.246 16.8344C6.31664 16.9105 6.33036 17.0106 6.27649 17.0589L6.27658 17.0588ZM6.64105 17.6653C6.57482 17.7112 6.46656 17.6681 6.39973 17.5721C6.33358 17.4761 6.33358 17.3609 6.40117 17.3147C6.46826 17.2686 6.57482 17.3101 6.64258 17.4054C6.70865 17.503 6.70865 17.6182 6.64097 17.6653L6.64105 17.6653ZM7.25735 18.3677C7.19814 18.4329 7.07211 18.4155 6.97978 18.3264C6.88542 18.2393 6.85908 18.1157 6.91845 18.0504C6.97834 17.985 7.10514 18.0034 7.19814 18.0917C7.29191 18.1786 7.32054 18.3031 7.25744 18.3677H7.25735ZM8.0539 18.6049C8.02789 18.6894 7.90643 18.7278 7.78412 18.6919C7.66198 18.6549 7.58202 18.5558 7.60667 18.4704C7.63208 18.3852 7.75405 18.3452 7.87729 18.3836C7.99926 18.4205 8.07939 18.5188 8.05398 18.6049H8.0539ZM8.96056 18.7054C8.96361 18.7945 8.85985 18.8684 8.73144 18.87C8.60226 18.8728 8.49783 18.8007 8.49647 18.7131C8.49647 18.6232 8.59786 18.55 8.72695 18.5479C8.85536 18.5453 8.96056 18.6169 8.96056 18.7054V18.7054ZM9.85112 18.6713C9.86654 18.7582 9.77726 18.8474 9.64978 18.8712C9.52442 18.894 9.40838 18.8404 9.39237 18.7543C9.37679 18.6652 9.46776 18.576 9.59286 18.5529C9.7206 18.5307 9.83486 18.5829 9.85112 18.6713" fill="#353E5C"/>
</svg>
